<svg width="26" height="24" viewBox="0 0 26 24" fill="none" xmlns="http://www.w3.org/2000/svg">
<path d="M3.7706 8.84875C4.45171 6.13983 6.62665 4.04534 9.38541 3.44162L9.84498 3.34105C11.9229 2.88632 14.0764 2.88632 16.1544 3.34105L16.6139 3.44162C19.3727 4.04534 21.5476 6.13984 22.2287 8.84875C22.7491 10.9182 22.7491 13.0819 22.2287 15.1512C21.5476 17.8602 19.3727 19.9547 16.6139 20.5584L16.1544 20.659C14.0764 21.1137 11.9229 21.1137 9.84498 20.659L9.3854 20.5584C6.62665 19.9547 4.45171 17.8602 3.7706 15.1513C3.25029 13.0819 3.25029 10.9181 3.7706 8.84875Z" stroke="#79797F" stroke-width="1.5"/>
<path fill-rule="evenodd" clip-rule="evenodd" d="M12.9998 7C13.387 7 13.7008 7.29199 13.7008 7.65217V8.18573H13.7785C15.0821 8.18573 16.0373 9.24015 16.0373 10.4189C16.0373 10.7791 15.7234 11.0711 15.3363 11.0711C14.9491 11.0711 14.6353 10.7791 14.6353 10.4189C14.6353 9.85137 14.1955 9.49008 13.7785 9.49008H13.7008V11.5432L14.6473 11.8634C15.5074 12.1544 16.0373 12.9457 16.0373 13.7838C16.0373 14.8506 15.1716 15.8142 13.9783 15.8142H13.7008V16.3478C13.7008 16.708 13.387 17 12.9998 17C12.6127 17 12.2988 16.708 12.2988 16.3478V15.8142H12.2207C10.917 15.8142 9.96191 14.7598 9.96191 13.581C9.96191 13.2208 10.2758 12.9288 10.6629 12.9288C11.0501 12.9288 11.3639 13.2208 11.3639 13.581C11.3639 14.1486 11.8037 14.5098 12.2207 14.5098H12.2988V12.4568L11.3519 12.1365C10.4918 11.8455 9.96191 11.0542 9.96191 10.2161C9.96191 9.14934 10.8276 8.18573 12.0208 8.18573H12.2988V7.65217C12.2988 7.29199 12.6127 7 12.9998 7ZM12.2988 9.49008H12.0208C11.7142 9.49008 11.3639 9.76055 11.3639 10.2161C11.3639 10.5645 11.5821 10.8265 11.831 10.9107L12.2988 11.0689V9.49008ZM13.7008 12.9312V14.5098H13.9783C14.285 14.5098 14.6353 14.2394 14.6353 13.7838C14.6353 13.4355 14.4171 13.1735 14.1682 13.0893L13.7008 12.9312Z" fill="#79797F"/>
</svg>