<svg width="25" height="24" viewBox="0 0 25 24" fill="none" xmlns="http://www.w3.org/2000/svg">
<path d="M9.3335 6.54107V20.7961M15.3335 3.18107V17.4361M3.3335 8.59307C3.3335 7.06607 3.3335 6.30307 3.7265 5.85807C3.8655 5.69907 4.0345 5.57307 4.2235 5.48607C5.6395 4.83307 7.4955 6.55207 8.9935 6.49907C9.1915 6.49174 9.38716 6.4644 9.5805 6.41707C11.7645 5.88207 13.1325 3.33707 15.3785 3.02707C16.6655 2.84707 18.0785 3.62507 19.2825 4.04107C20.2725 4.38307 20.7675 4.55407 21.0505 4.96107C21.3335 5.36807 21.3335 5.91007 21.3335 6.99007V15.4121C21.3335 16.9381 21.3335 17.7021 20.9405 18.1471C20.8025 18.304 20.6332 18.4304 20.4435 18.5181C19.0275 19.1711 17.1715 17.4531 15.6735 17.5061C15.4756 17.5136 15.279 17.5408 15.0865 17.5871C12.9025 18.1221 11.5345 20.6671 9.2885 20.9781C8.0075 21.1561 4.4415 20.2281 3.6165 19.0431C3.3335 18.6361 3.3335 18.0961 3.3335 17.0141V8.59307Z" stroke="#79797F" stroke-width="1.5" stroke-linecap="round" stroke-linejoin="round"/>
</svg>
