<svg width="25" height="24" viewBox="0 0 25 24" fill="none" xmlns="http://www.w3.org/2000/svg">
<path d="M14.583 16.952V4.05398C14.05 4.31398 13.527 4.72398 12.933 5.21598L12.772 5.34998C12.026 5.96998 11.148 6.70198 10.083 7.05198V19.951C10.617 19.69 11.139 19.28 11.733 18.789L11.894 18.654C12.64 18.034 13.518 17.303 14.583 16.952ZM18.675 3.00598C18.982 3.12898 19.261 3.24098 19.527 3.33198L19.564 3.34498C20.027 3.50498 20.434 3.64498 20.756 3.80098C21.107 3.96999 21.424 4.18598 21.666 4.53298C21.906 4.87698 22 5.25098 22.043 5.63998C22.083 6.00298 22.083 6.44398 22.083 6.95098V15.455C22.083 16.181 22.083 16.789 22.029 17.268C21.974 17.763 21.85 18.249 21.503 18.643C21.2948 18.8772 21.041 19.0664 20.757 19.199C20.222 19.446 19.676 19.452 19.183 19.367C18.7 19.284 18.223 19.104 17.803 18.93C17.663 18.872 17.529 18.8157 17.401 18.761C17.121 18.642 16.865 18.533 16.602 18.441C16.228 18.308 15.935 18.247 15.7 18.255C15.5532 18.259 15.4074 18.2791 15.265 18.315C14.398 18.528 13.666 19.134 12.761 19.885L12.689 19.944C11.815 20.668 10.756 21.532 9.39101 21.721C8.96301 21.781 8.41601 21.743 7.86401 21.659C7.25312 21.5621 6.64992 21.4217 6.05901 21.239C5.45743 21.0585 4.87418 20.8218 4.31701 20.532C3.81201 20.263 3.30901 19.915 3.00001 19.472C2.76001 19.127 2.66601 18.753 2.62301 18.364C2.58301 18.001 2.58301 17.561 2.58301 17.053V8.54898C2.58301 7.82298 2.58301 7.21498 2.63701 6.73598C2.69201 6.24098 2.81601 5.75498 3.16301 5.36098C3.37101 5.12598 3.62401 4.93598 3.90901 4.80498C4.44401 4.55798 4.99001 4.55198 5.48301 4.63698C5.96601 4.72098 6.44301 4.89998 6.86301 5.07398C7.00301 5.13198 7.13701 5.18832 7.26501 5.24298C7.54501 5.36298 7.80101 5.47098 8.06401 5.56298C8.43901 5.69598 8.73101 5.75798 8.96601 5.74898C9.11267 5.74365 9.25767 5.72365 9.40101 5.68898C10.268 5.47598 11 4.86998 11.905 4.11898L11.977 4.05998C12.851 3.33698 13.91 2.47298 15.275 2.28298C16.093 2.16998 16.902 2.36498 17.601 2.59998C17.955 2.71998 18.303 2.85798 18.623 2.98598L18.675 3.00598Z" fill="#42CE79"/>
</svg>
