<svg width="25" height="24" viewBox="0 0 25 24" fill="none" xmlns="http://www.w3.org/2000/svg">
<path d="M11.9165 13.5C12.7122 13.5 13.4752 13.8161 14.0378 14.3787C14.6004 14.9413 14.9165 15.7044 14.9165 16.5C14.9165 17.9475 14.0285 19.095 12.8 19.845C11.5715 20.592 9.929 21 8.1665 21C6.404 21 4.7615 20.592 3.533 19.845C2.303 19.095 1.4165 17.9475 1.4165 16.5C1.4165 15.7044 1.73257 14.9413 2.29518 14.3787C2.85779 13.8161 3.62085 13.5 4.4165 13.5H11.9165ZM4.4165 15C4.01868 15 3.63715 15.158 3.35584 15.4393C3.07454 15.7206 2.9165 16.1022 2.9165 16.5C2.9165 17.262 3.3725 17.988 4.3145 18.5625C5.2565 19.137 6.6155 19.5 8.1665 19.5C9.7175 19.5 11.0765 19.137 12.0185 18.5625C12.9605 17.988 13.4165 17.262 13.4165 16.5C13.4165 16.1022 13.2585 15.7206 12.9772 15.4393C12.6959 15.158 12.3143 15 11.9165 15H4.4165ZM21.8945 13.512C22.4488 13.5685 22.9625 13.8286 23.336 14.242C23.7096 14.6555 23.9164 15.1928 23.9165 15.75C23.9165 16.9065 23.2115 17.8635 22.265 18.495C21.311 19.131 20.036 19.5 18.6665 19.5C17.618 19.5 16.6265 19.281 15.791 18.8955C16.031 18.465 16.211 17.994 16.316 17.481C16.9505 17.796 17.762 18 18.6665 18C19.781 18 20.7575 17.697 21.4325 17.247C22.112 16.794 22.4165 16.2495 22.4165 15.75C22.4165 15.5771 22.3568 15.4095 22.2475 15.2756C22.1382 15.1416 21.9859 15.0496 21.8165 15.015L21.6665 15H16.1555C15.9641 14.4601 15.6714 13.9616 15.293 13.5315C15.4159 13.5107 15.5403 13.5002 15.665 13.5H21.665L21.8945 13.512ZM19.0145 5.262C19.8464 5.34774 20.6169 5.73888 21.1771 6.35977C21.7373 6.98067 22.0475 7.78722 22.0475 8.6235L22.0295 8.9685C21.9434 9.79984 21.5524 10.5698 20.9318 11.1297C20.3113 11.6896 19.5053 11.9996 18.6695 12L18.3245 11.982C17.5518 11.9032 16.8298 11.5602 16.2806 11.0109C15.7313 10.4617 15.3883 9.73975 15.3095 8.967L15.2915 8.622C15.2911 8.17828 15.3782 7.73884 15.5478 7.32883C15.7175 6.91881 15.9663 6.54627 16.28 6.23251C16.5938 5.91876 16.9663 5.66995 17.3763 5.50033C17.7863 5.33071 18.2258 5.24361 18.6695 5.244L19.0145 5.262ZM8.1665 3.75C9.26052 3.75 10.3097 4.1846 11.0833 4.95818C11.8569 5.73177 12.2915 6.78098 12.2915 7.875C12.2915 8.96902 11.8569 10.0182 11.0833 10.7918C10.3097 11.5654 9.26052 12 8.1665 12C7.07249 12 6.02328 11.5654 5.24969 10.7918C4.4761 10.0182 4.0415 8.96902 4.0415 7.875C4.0415 6.78098 4.4761 5.73177 5.24969 4.95818C6.02328 4.1846 7.07249 3.75 8.1665 3.75ZM18.6695 6.7455C18.1714 6.7455 17.6938 6.94336 17.3416 7.29555C16.9894 7.64775 16.7915 8.12542 16.7915 8.6235C16.7915 9.12158 16.9894 9.59925 17.3416 9.95145C17.6938 10.3036 18.1714 10.5015 18.6695 10.5015C19.1676 10.5015 19.6453 10.3036 19.9974 9.95145C20.3496 9.59925 20.5475 9.12158 20.5475 8.6235C20.5475 8.12542 20.3496 7.64775 19.9974 7.29555C19.6453 6.94336 19.1676 6.7455 18.6695 6.7455ZM8.1665 5.25C7.47031 5.25 6.80263 5.52656 6.31035 6.01884C5.81807 6.51113 5.5415 7.17881 5.5415 7.875C5.5415 8.57119 5.81807 9.23887 6.31035 9.73116C6.80263 10.2234 7.47031 10.5 8.1665 10.5C8.8627 10.5 9.53038 10.2234 10.0227 9.73116C10.5149 9.23887 10.7915 8.57119 10.7915 7.875C10.7915 7.17881 10.5149 6.51113 10.0227 6.01884C9.53038 5.52656 8.8627 5.25 8.1665 5.25Z" fill="#42CE79"/>
</svg>